<svg width="608" height="124" viewBox="0 0 608 124" fill="none" xmlns="http://www.w3.org/2000/svg">
<path d="M3.552 44V8.96H12.48V44H3.552ZM11.52 44V36.224H25.728V44H11.52ZM41.2181 44.96C38.9781 44.96 36.9941 44.576 35.2661 43.808C33.5381 43.04 32.0821 42 30.8981 40.688C29.7141 39.376 28.8021 37.904 28.1621 36.272C27.5541 34.64 27.2501 32.96 27.2501 31.232V30.272C27.2501 28.48 27.5541 26.768 28.1621 25.136C28.8021 23.472 29.6981 22 30.8501 20.72C32.0341 19.44 33.4741 18.432 35.1701 17.696C36.8661 16.928 38.7861 16.544 40.9301 16.544C43.7781 16.544 46.1941 17.184 48.1781 18.464C50.1621 19.744 51.6821 21.44 52.7381 23.552C53.7941 25.632 54.3221 27.904 54.3221 30.368V33.152H30.8981V28.448H49.2821L46.2581 30.56C46.2581 29.056 46.0501 27.792 45.6341 26.768C45.2501 25.712 44.6581 24.912 43.8581 24.368C43.0901 23.824 42.1141 23.552 40.9301 23.552C39.7781 23.552 38.7701 23.824 37.9061 24.368C37.0741 24.88 36.4341 25.68 35.9861 26.768C35.5381 27.824 35.3141 29.168 35.3141 30.8C35.3141 32.272 35.5221 33.552 35.9381 34.64C36.3541 35.696 36.9941 36.512 37.8581 37.088C38.7221 37.664 39.8421 37.952 41.2181 37.952C42.4341 37.952 43.4261 37.744 44.1941 37.328C44.9941 36.912 45.5541 36.352 45.8741 35.648H53.8421C53.4581 37.44 52.6901 39.04 51.5381 40.448C50.4181 41.856 48.9781 42.96 47.2181 43.76C45.4901 44.56 43.4901 44.96 41.2181 44.96ZM70.5908 44.384C67.7108 44.384 65.4068 44.032 63.6788 43.328C61.9828 42.624 60.7508 41.456 59.9828 39.824C59.2148 38.192 58.8308 35.984 58.8308 33.2L58.8788 10.592H66.9428L66.8948 33.44C66.8948 34.624 67.1988 35.536 67.8068 36.176C68.4468 36.784 69.3588 37.088 70.5428 37.088H74.1908V44.384H70.5908ZM54.9908 23.84V17.504H74.1908V23.84H54.9908ZM76.473 25.952V20.96H78.297C79.129 20.96 79.785 20.848 80.265 20.624C80.777 20.4 81.145 19.984 81.369 19.376C81.625 18.736 81.753 17.84 81.753 16.688V13.184L83.337 16.448C83.113 16.64 82.777 16.816 82.329 16.976C81.881 17.104 81.385 17.168 80.841 17.168C79.625 17.168 78.601 16.8 77.769 16.064C76.969 15.328 76.569 14.288 76.569 12.944C76.569 11.696 76.953 10.624 77.721 9.728C78.521 8.832 79.689 8.384 81.225 8.384C82.217 8.384 83.113 8.624 83.913 9.104C84.745 9.552 85.401 10.32 85.881 11.408C86.393 12.464 86.649 13.904 86.649 15.728V16.352C86.649 18.592 86.313 20.416 85.641 21.824C84.969 23.232 83.977 24.272 82.665 24.944C81.353 25.616 79.721 25.952 77.769 25.952H76.473ZM99.09 44.864C95.25 44.864 92.226 44.08 90.018 42.512C87.81 40.912 86.626 38.672 86.466 35.792H94.146C94.274 36.592 94.77 37.28 95.634 37.856C96.498 38.432 97.714 38.72 99.282 38.72C100.402 38.72 101.362 38.56 102.162 38.24C102.994 37.888 103.41 37.328 103.41 36.56C103.41 35.888 103.09 35.344 102.45 34.928C101.81 34.48 100.642 34.176 98.946 34.016L97.122 33.824C93.73 33.472 91.234 32.544 89.634 31.04C88.034 29.536 87.234 27.648 87.234 25.376C87.234 23.424 87.714 21.824 88.674 20.576C89.634 19.296 90.962 18.336 92.658 17.696C94.354 17.056 96.29 16.736 98.466 16.736C102.018 16.736 104.882 17.52 107.058 19.088C109.234 20.624 110.386 22.848 110.514 25.76H102.834C102.706 24.96 102.274 24.288 101.538 23.744C100.802 23.168 99.746 22.88 98.37 22.88C97.378 22.88 96.562 23.056 95.922 23.408C95.314 23.76 95.01 24.256 95.01 24.896C95.01 25.568 95.298 26.064 95.874 26.384C96.482 26.704 97.442 26.944 98.754 27.104L100.578 27.296C103.97 27.648 106.578 28.592 108.402 30.128C110.258 31.632 111.186 33.616 111.186 36.08C111.186 37.904 110.69 39.472 109.698 40.784C108.738 42.096 107.346 43.104 105.522 43.808C103.73 44.512 101.586 44.864 99.09 44.864Z" fill="black"/>
<mask id="path-2-outside-1_309_831" maskUnits="userSpaceOnUse" x="126" y="5" width="103" height="43" fill="black">
<rect fill="white" x="126" y="5" width="103" height="43"/>
<path d="M144.792 44.384C141.912 44.384 139.608 44.032 137.88 43.328C136.184 42.624 134.952 41.456 134.184 39.824C133.416 38.192 133.032 35.984 133.032 33.2L133.08 10.592H141.144L141.096 33.44C141.096 34.624 141.4 35.536 142.008 36.176C142.648 36.784 143.56 37.088 144.744 37.088H148.392V44.384H144.792ZM129.192 23.84V17.504H148.392V23.84H129.192ZM168.053 44V36.224H166.613V27.92C166.613 26.704 166.325 25.808 165.749 25.232C165.205 24.624 164.293 24.32 163.013 24.32C162.405 24.32 161.509 24.336 160.325 24.368C159.141 24.4 157.893 24.448 156.581 24.512C155.269 24.576 154.069 24.64 152.981 24.704V17.408C153.749 17.344 154.661 17.28 155.717 17.216C156.773 17.152 157.861 17.104 158.981 17.072C160.133 17.04 161.189 17.024 162.149 17.024C164.869 17.024 167.173 17.424 169.061 18.224C170.981 19.024 172.437 20.224 173.429 21.824C174.453 23.424 174.965 25.456 174.965 27.92V44H168.053ZM159.653 44.672C157.797 44.672 156.149 44.336 154.709 43.664C153.269 42.992 152.133 42.032 151.301 40.784C150.501 39.504 150.101 37.984 150.101 36.224C150.101 34.24 150.629 32.64 151.685 31.424C152.741 30.176 154.197 29.264 156.053 28.688C157.909 28.112 160.037 27.824 162.437 27.824H167.573V32.336H162.437C161.253 32.336 160.341 32.64 159.701 33.248C159.061 33.824 158.741 34.608 158.741 35.6C158.741 36.56 159.061 37.344 159.701 37.952C160.341 38.528 161.253 38.816 162.437 38.816C163.205 38.816 163.877 38.688 164.453 38.432C165.061 38.144 165.557 37.664 165.941 36.992C166.325 36.32 166.549 35.392 166.613 34.208L168.629 36.128C168.469 37.952 168.021 39.504 167.285 40.784C166.581 42.032 165.589 42.992 164.309 43.664C163.061 44.336 161.509 44.672 159.653 44.672ZM180.226 44V8.96H188.962V44H180.226ZM177.25 15.296V8.96H188.962V15.296H177.25ZM213.26 44L205.436 31.616H201.884L212.252 17.504H221.372L211.532 30.8V26.576L223.004 44H213.26ZM194.444 44V8.96H203.18V44H194.444Z"/>
</mask>
<path d="M137.88 43.328L136.73 46.0988L136.739 46.1026L136.748 46.1063L137.88 43.328ZM134.184 39.824L131.47 41.1014L134.184 39.824ZM133.032 33.2L130.032 33.1936V33.2H133.032ZM133.08 10.592V7.592H130.086L130.08 10.5856L133.08 10.592ZM141.144 10.592L144.144 10.5983L144.15 7.592H141.144V10.592ZM141.096 33.44L138.096 33.4337V33.44H141.096ZM142.008 36.176L139.833 38.2422L139.886 38.298L139.942 38.351L142.008 36.176ZM148.392 37.088H151.392V34.088H148.392V37.088ZM148.392 44.384V47.384H151.392V44.384H148.392ZM129.192 23.84H126.192V26.84H129.192V23.84ZM129.192 17.504V14.504H126.192V17.504H129.192ZM148.392 17.504H151.392V14.504H148.392V17.504ZM148.392 23.84V26.84H151.392V23.84H148.392ZM144.792 41.384C142.111 41.384 140.239 41.0499 139.012 40.5497L136.748 46.1063C138.977 47.0141 141.713 47.384 144.792 47.384V41.384ZM139.03 40.5572C138.009 40.1335 137.343 39.4903 136.898 38.5466L131.47 41.1014C132.561 43.4217 134.359 45.1145 136.73 46.0988L139.03 40.5572ZM136.898 38.5466C136.393 37.4722 136.032 35.7588 136.032 33.2H130.032C130.032 36.2092 130.439 38.9118 131.47 41.1014L136.898 38.5466ZM136.032 33.2064L136.08 10.5984L130.08 10.5856L130.032 33.1936L136.032 33.2064ZM133.08 13.592H141.144V7.592H133.08V13.592ZM138.144 10.5857L138.096 33.4337L144.096 33.4463L144.144 10.5983L138.144 10.5857ZM138.096 33.44C138.096 35.1246 138.536 36.8765 139.833 38.2422L144.183 34.1097C144.208 34.1362 144.196 34.1398 144.17 34.0633C144.14 33.9746 144.096 33.7813 144.096 33.44H138.096ZM139.942 38.351C141.308 39.6485 143.059 40.088 144.744 40.088V34.088C144.403 34.088 144.209 34.0435 144.121 34.014C144.044 33.9885 144.048 33.9759 144.074 34.001L139.942 38.351ZM144.744 40.088H148.392V34.088H144.744V40.088ZM145.392 37.088V44.384H151.392V37.088H145.392ZM148.392 41.384H144.792V47.384H148.392V41.384ZM132.192 23.84V17.504H126.192V23.84H132.192ZM129.192 20.504H148.392V14.504H129.192V20.504ZM145.392 17.504V23.84H151.392V17.504H145.392ZM148.392 20.84H129.192V26.84H148.392V20.84ZM168.053 44H165.053V47H168.053V44ZM168.053 36.224H171.053V33.224H168.053V36.224ZM166.613 36.224H163.613V39.224H166.613V36.224ZM165.749 25.232L163.513 27.2324L163.568 27.2944L163.627 27.3533L165.749 25.232ZM160.325 24.368L160.406 27.3669H160.406L160.325 24.368ZM156.581 24.512L156.727 27.5084L156.581 24.512ZM152.981 24.704H149.981V27.8857L153.157 27.6988L152.981 24.704ZM152.981 17.408L152.731 14.4184L149.981 14.6476V17.408H152.981ZM155.717 17.216L155.535 14.2215L155.717 17.216ZM158.981 17.072L158.897 14.0732L158.895 14.0732L158.981 17.072ZM169.061 18.224L167.89 20.9863L167.898 20.9898L167.907 20.9932L169.061 18.224ZM173.429 21.824L170.879 23.4048L170.89 23.4231L170.902 23.4412L173.429 21.824ZM174.965 44V47H177.965V44H174.965ZM151.301 40.784L148.757 42.374L148.78 42.4114L148.804 42.4481L151.301 40.784ZM151.685 31.424L153.95 33.3911L153.962 33.3765L153.975 33.3618L151.685 31.424ZM156.053 28.688L156.942 31.5532H156.942L156.053 28.688ZM167.573 27.824H170.573V24.824H167.573V27.824ZM167.573 32.336V35.336H170.573V32.336H167.573ZM159.701 33.248L161.707 35.4779L161.737 35.4508L161.767 35.423L159.701 33.248ZM159.701 37.952L157.634 40.127L157.664 40.1548L157.694 40.1819L159.701 37.952ZM164.453 38.432L165.671 41.1734L165.704 41.1587L165.737 41.1432L164.453 38.432ZM165.941 36.992L163.336 35.5036H163.336L165.941 36.992ZM166.613 34.208L168.681 32.0356L163.968 27.5467L163.617 34.0461L166.613 34.208ZM168.629 36.128L171.617 36.3902L171.743 34.9515L170.697 33.9556L168.629 36.128ZM167.285 40.784L164.684 39.2886L164.678 39.2993L164.672 39.31L167.285 40.784ZM164.309 43.664L162.914 41.0078L162.9 41.0151L162.886 41.0226L164.309 43.664ZM171.053 44V36.224H165.053V44H171.053ZM168.053 33.224H166.613V39.224H168.053V33.224ZM169.613 36.224V27.92H163.613V36.224H169.613ZM169.613 27.92C169.613 26.2966 169.234 24.4745 167.87 23.1107L163.627 27.3533C163.529 27.2554 163.52 27.1891 163.54 27.254C163.566 27.3333 163.613 27.5376 163.613 27.92H169.613ZM167.984 23.2316C166.615 21.7013 164.667 21.32 163.013 21.32V27.32C163.43 27.32 163.64 27.3715 163.708 27.394C163.757 27.4106 163.646 27.3818 163.513 27.2324L167.984 23.2316ZM163.013 21.32C162.363 21.32 161.434 21.3369 160.243 21.3691L160.406 27.3669C161.583 27.3351 162.446 27.32 163.013 27.32V21.32ZM160.243 21.3691C159.036 21.4017 157.766 21.4506 156.434 21.5156L156.727 27.5084C158.019 27.4454 159.245 27.3983 160.406 27.3669L160.243 21.3691ZM156.434 21.5156C155.114 21.58 153.904 21.6445 152.804 21.7092L153.157 27.6988C154.233 27.6355 155.423 27.572 156.727 27.5084L156.434 21.5156ZM155.981 24.704V17.408H149.981V24.704H155.981ZM153.23 20.3976C153.969 20.3361 154.857 20.2736 155.898 20.2105L155.535 14.2215C154.464 14.2864 153.528 14.3519 152.731 14.4184L153.23 20.3976ZM155.898 20.2105C156.92 20.1485 157.976 20.1019 159.066 20.0708L158.895 14.0732C157.745 14.1061 156.625 14.1555 155.535 14.2215L155.898 20.2105ZM159.064 20.0708C160.193 20.0395 161.221 20.024 162.149 20.024V14.024C161.156 14.024 160.072 14.0405 158.897 14.0732L159.064 20.0708ZM162.149 20.024C164.591 20.024 166.472 20.3853 167.89 20.9863L170.231 15.4617C167.873 14.4627 165.146 14.024 162.149 14.024V20.024ZM167.907 20.9932C169.312 21.5789 170.251 22.3925 170.879 23.4048L175.978 20.2432C174.622 18.0554 172.649 16.4691 170.214 15.4548L167.907 20.9932ZM170.902 23.4412C171.537 24.4342 171.965 25.8614 171.965 27.92H177.965C177.965 25.0506 177.368 22.4138 175.955 20.2068L170.902 23.4412ZM171.965 27.92V44H177.965V27.92H171.965ZM174.965 41H168.053V47H174.965V41ZM159.653 41.672C158.162 41.672 156.959 41.4034 155.977 40.9454L153.44 46.3825C155.338 47.2686 157.431 47.672 159.653 47.672V41.672ZM155.977 40.9454C155.004 40.4915 154.305 39.8831 153.797 39.1199L148.804 42.4481C149.96 44.1809 151.533 45.4925 153.44 46.3825L155.977 40.9454ZM153.844 39.194C153.389 38.4654 153.101 37.5167 153.101 36.224H147.101C147.101 38.4513 147.612 40.5426 148.757 42.374L153.844 39.194ZM153.101 36.224C153.101 34.7886 153.47 33.9428 153.95 33.3911L149.419 29.4569C147.787 31.3372 147.101 33.6914 147.101 36.224H153.101ZM153.975 33.3618C154.597 32.6266 155.527 31.9922 156.942 31.5532L155.163 25.8228C152.866 26.5358 150.884 27.7254 149.394 29.4862L153.975 33.3618ZM156.942 31.5532C158.451 31.0847 160.27 30.824 162.437 30.824V24.824C159.803 24.824 157.366 25.1393 155.163 25.8228L156.942 31.5532ZM162.437 30.824H167.573V24.824H162.437V30.824ZM164.573 27.824V32.336H170.573V27.824H164.573ZM167.573 29.336H162.437V35.336H167.573V29.336ZM162.437 29.336C160.752 29.336 159 29.7755 157.634 31.073L161.767 35.423C161.74 35.4481 161.737 35.4355 161.813 35.41C161.902 35.3805 162.095 35.336 162.437 35.336V29.336ZM157.694 31.0181C156.323 32.2519 155.741 33.9002 155.741 35.6H161.741C161.741 35.4271 161.768 35.3776 161.758 35.4017C161.754 35.4125 161.745 35.4301 161.731 35.4491C161.725 35.4579 161.719 35.465 161.715 35.4704C161.71 35.4757 161.707 35.4781 161.707 35.4779L157.694 31.0181ZM155.741 35.6C155.741 37.3024 156.342 38.8998 157.634 40.127L161.767 35.777C161.751 35.7616 161.747 35.7557 161.75 35.7598C161.753 35.7643 161.756 35.7702 161.758 35.7743C161.763 35.7872 161.741 35.7429 161.741 35.6H155.741ZM157.694 40.1819C159.062 41.4134 160.791 41.816 162.437 41.816V35.816C161.714 35.816 161.619 35.6426 161.707 35.7221L157.694 40.1819ZM162.437 41.816C163.535 41.816 164.637 41.6329 165.671 41.1734L163.234 35.6906C163.116 35.7431 162.874 35.816 162.437 35.816V41.816ZM165.737 41.1432C166.98 40.5543 167.904 39.6027 168.545 38.4804L163.336 35.5036C163.267 35.6231 163.216 35.6793 163.194 35.7002C163.175 35.7185 163.169 35.7206 163.168 35.7208L165.737 41.1432ZM168.545 38.4804C169.252 37.244 169.531 35.7951 169.608 34.3699L163.617 34.0461C163.566 34.9889 163.397 35.396 163.336 35.5036L168.545 38.4804ZM164.544 36.3804L166.56 38.3004L170.697 33.9556L168.681 32.0356L164.544 36.3804ZM165.64 35.8658C165.509 37.3571 165.157 38.4661 164.684 39.2886L169.885 42.2794C170.884 40.5419 171.428 38.5469 171.617 36.3902L165.64 35.8658ZM164.672 39.31C164.254 40.0501 163.687 40.6018 162.914 41.0078L165.703 46.3202C167.49 45.3822 168.907 44.0139 169.897 42.258L164.672 39.31ZM162.886 41.0226C162.19 41.3976 161.161 41.672 159.653 41.672V47.672C161.856 47.672 163.931 47.2744 165.731 46.3054L162.886 41.0226ZM180.226 44H177.226V47H180.226V44ZM180.226 8.96V5.96H177.226V8.96H180.226ZM188.962 8.96H191.962V5.96H188.962V8.96ZM188.962 44V47H191.962V44H188.962ZM177.25 15.296H174.25V18.296H177.25V15.296ZM177.25 8.96V5.96H174.25V8.96H177.25ZM188.962 8.96H191.962V5.96H188.962V8.96ZM188.962 15.296V18.296H191.962V15.296H188.962ZM183.226 44V8.96H177.226V44H183.226ZM180.226 11.96H188.962V5.96H180.226V11.96ZM185.962 8.96V44H191.962V8.96H185.962ZM188.962 41H180.226V47H188.962V41ZM180.25 15.296V8.96H174.25V15.296H180.25ZM177.25 11.96H188.962V5.96H177.25V11.96ZM185.962 8.96V15.296H191.962V8.96H185.962ZM188.962 12.296H177.25V18.296H188.962V12.296ZM213.26 44L210.724 45.6023L211.607 47H213.26V44ZM205.436 31.616L207.972 30.0137L207.089 28.616H205.436V31.616ZM201.884 31.616L199.467 29.8398L195.958 34.616H201.884V31.616ZM212.252 17.504V14.504H210.734L209.835 15.7278L212.252 17.504ZM221.372 17.504L223.784 19.2886L227.325 14.504H221.372V17.504ZM211.532 30.8H208.532V39.8967L213.944 32.5846L211.532 30.8ZM211.532 26.576L214.038 24.9263L208.532 16.5641V26.576H211.532ZM223.004 44V47H228.571L225.51 42.3503L223.004 44ZM194.444 44H191.444V47H194.444V44ZM194.444 8.96V5.96H191.444V8.96H194.444ZM203.18 8.96H206.18V5.96H203.18V8.96ZM203.18 44V47H206.18V44H203.18ZM215.796 42.3977L207.972 30.0137L202.9 33.2183L210.724 45.6023L215.796 42.3977ZM205.436 28.616H201.884V34.616H205.436V28.616ZM204.302 33.3922L214.67 19.2802L209.835 15.7278L199.467 29.8398L204.302 33.3922ZM212.252 20.504H221.372V14.504H212.252V20.504ZM218.961 15.7194L209.121 29.0154L213.944 32.5846L223.784 19.2886L218.961 15.7194ZM214.532 30.8V26.576H208.532V30.8H214.532ZM209.027 28.2257L220.499 45.6497L225.51 42.3503L214.038 24.9263L209.027 28.2257ZM223.004 41H213.26V47H223.004V41ZM197.444 44V8.96H191.444V44H197.444ZM194.444 11.96H203.18V5.96H194.444V11.96ZM200.18 8.96V44H206.18V8.96H200.18ZM203.18 41H194.444V47H203.18V41Z" fill="black" mask="url(#path-2-outside-1_309_831)"/>
<path d="M243.744 44V17.6C243.744 14.496 244.64 12.192 246.432 10.688C248.224 9.152 250.88 8.384 254.4 8.384H257.808V14.816H254.208C253.44 14.816 252.848 15.024 252.432 15.44C252.016 15.856 251.808 16.448 251.808 17.216V44H243.744ZM240.768 24.416V18.08H258.192V24.416H240.768ZM273.689 44.96C271.353 44.96 269.273 44.608 267.449 43.904C265.625 43.2 264.073 42.224 262.793 40.976C261.545 39.728 260.585 38.288 259.913 36.656C259.273 35.024 258.953 33.28 258.953 31.424V30.272C258.953 28.352 259.289 26.56 259.961 24.896C260.665 23.232 261.657 21.776 262.937 20.528C264.217 19.28 265.769 18.304 267.593 17.6C269.417 16.896 271.449 16.544 273.689 16.544C275.961 16.544 277.993 16.896 279.785 17.6C281.609 18.304 283.161 19.28 284.441 20.528C285.721 21.776 286.697 23.232 287.369 24.896C288.073 26.56 288.425 28.352 288.425 30.272V31.424C288.425 33.28 288.089 35.024 287.417 36.656C286.777 38.288 285.817 39.728 284.537 40.976C283.289 42.224 281.753 43.2 279.929 43.904C278.105 44.608 276.025 44.96 273.689 44.96ZM273.689 37.664C275.033 37.664 276.137 37.376 277.001 36.8C277.897 36.224 278.569 35.424 279.017 34.4C279.465 33.344 279.689 32.16 279.689 30.848C279.689 29.472 279.449 28.272 278.969 27.248C278.521 26.192 277.849 25.36 276.953 24.752C276.057 24.144 274.969 23.84 273.689 23.84C272.409 23.84 271.321 24.144 270.425 24.752C269.529 25.36 268.841 26.192 268.361 27.248C267.913 28.272 267.689 29.472 267.689 30.848C267.689 32.16 267.913 33.344 268.361 34.4C268.809 35.424 269.481 36.224 270.377 36.8C271.273 37.376 272.377 37.664 273.689 37.664ZM292.248 44V17.504H299.16V29.024H299.064C299.064 25.312 299.832 22.4 301.368 20.288C302.936 18.176 305.176 17.12 308.088 17.12H309.144V24.608H307.128C305.176 24.608 303.656 25.136 302.568 26.192C301.512 27.248 300.984 28.768 300.984 30.752V44H292.248Z" fill="black"/>
<path d="M16.032 112.96C12.768 112.96 10.016 112.448 7.776 111.424C5.568 110.4 3.888 109.008 2.736 107.248C1.616 105.456 1.056 103.408 1.056 101.104H9.696C9.696 101.936 9.92 102.704 10.368 103.408C10.848 104.08 11.552 104.608 12.48 104.992C13.408 105.376 14.592 105.568 16.032 105.568C17.28 105.568 18.336 105.408 19.2 105.088C20.096 104.768 20.768 104.32 21.216 103.744C21.696 103.168 21.936 102.48 21.936 101.68C21.936 100.656 21.504 99.872 20.64 99.328C19.776 98.752 18.32 98.384 16.272 98.224L14.016 98.032C10.4 97.712 7.52 96.576 5.376 94.624C3.232 92.672 2.16 90.08 2.16 86.848C2.16 84.544 2.688 82.576 3.744 80.944C4.832 79.312 6.352 78.064 8.304 77.2C10.256 76.336 12.56 75.904 15.216 75.904C18.096 75.904 20.528 76.384 22.512 77.344C24.528 78.304 26.064 79.664 27.12 81.424C28.176 83.152 28.704 85.168 28.704 87.472H20.064C20.064 86.704 19.872 86 19.488 85.36C19.104 84.72 18.544 84.224 17.808 83.872C17.104 83.488 16.24 83.296 15.216 83.296C14.256 83.296 13.44 83.456 12.768 83.776C12.128 84.064 11.632 84.48 11.28 85.024C10.96 85.568 10.8 86.176 10.8 86.848C10.8 87.744 11.104 88.512 11.712 89.152C12.32 89.792 13.376 90.176 14.88 90.304L17.136 90.496C19.76 90.72 22.08 91.296 24.096 92.224C26.112 93.12 27.696 94.352 28.848 95.92C30 97.488 30.576 99.408 30.576 101.68C30.576 103.952 29.984 105.936 28.8 107.632C27.648 109.328 25.984 110.64 23.808 111.568C21.664 112.496 19.072 112.96 16.032 112.96ZM47.0486 112.96C44.7126 112.96 42.6326 112.608 40.8086 111.904C38.9846 111.2 37.4326 110.224 36.1526 108.976C34.9046 107.728 33.9446 106.288 33.2726 104.656C32.6326 103.024 32.3126 101.28 32.3126 99.424V98.272C32.3126 96.352 32.6486 94.56 33.3206 92.896C34.0246 91.232 35.0166 89.776 36.2966 88.528C37.5766 87.28 39.1286 86.304 40.9526 85.6C42.7766 84.896 44.8086 84.544 47.0486 84.544C49.3206 84.544 51.3526 84.896 53.1446 85.6C54.9686 86.304 56.5206 87.28 57.8006 88.528C59.0806 89.776 60.0566 91.232 60.7286 92.896C61.4326 94.56 61.7846 96.352 61.7846 98.272V99.424C61.7846 101.28 61.4486 103.024 60.7766 104.656C60.1366 106.288 59.1766 107.728 57.8966 108.976C56.6486 110.224 55.1126 111.2 53.2886 111.904C51.4646 112.608 49.3846 112.96 47.0486 112.96ZM47.0486 105.664C48.3926 105.664 49.4966 105.376 50.3606 104.8C51.2566 104.224 51.9286 103.424 52.3766 102.4C52.8246 101.344 53.0486 100.16 53.0486 98.848C53.0486 97.472 52.8086 96.272 52.3286 95.248C51.8806 94.192 51.2086 93.36 50.3126 92.752C49.4166 92.144 48.3286 91.84 47.0486 91.84C45.7686 91.84 44.6806 92.144 43.7846 92.752C42.8886 93.36 42.2006 94.192 41.7206 95.248C41.2726 96.272 41.0486 97.472 41.0486 98.848C41.0486 100.16 41.2726 101.344 41.7206 102.4C42.1686 103.424 42.8406 104.224 43.7366 104.8C44.6326 105.376 45.7366 105.664 47.0486 105.664ZM65.6074 112V85.504H72.5194V96.928H72.1354C72.1354 94.176 72.4714 91.904 73.1434 90.112C73.8474 88.288 74.8714 86.928 76.2154 86.032C77.5594 85.104 79.2074 84.64 81.1594 84.64H81.5434C83.5274 84.64 85.1754 85.104 86.4874 86.032C87.8314 86.928 88.8394 88.288 89.5114 90.112C90.2154 91.904 90.5674 94.176 90.5674 96.928H88.5514C88.5514 94.176 88.8874 91.904 89.5594 90.112C90.2634 88.288 91.2874 86.928 92.6314 86.032C93.9754 85.104 95.6234 84.64 97.5754 84.64H97.9594C99.9434 84.64 101.607 85.104 102.951 86.032C104.327 86.928 105.367 88.288 106.071 90.112C106.807 91.904 107.175 94.176 107.175 96.928V112H98.4394V96.688C98.4394 95.472 98.1034 94.464 97.4314 93.664C96.7914 92.832 95.8634 92.416 94.6474 92.416C93.4314 92.416 92.4714 92.832 91.7674 93.664C91.0954 94.464 90.7594 95.504 90.7594 96.784V112H82.0234V96.688C82.0234 95.472 81.6874 94.464 81.0154 93.664C80.3754 92.832 79.4474 92.416 78.2314 92.416C77.0154 92.416 76.0554 92.832 75.3514 93.664C74.6794 94.464 74.3434 95.504 74.3434 96.784V112H65.6074ZM124.517 112.96C122.277 112.96 120.293 112.576 118.565 111.808C116.837 111.04 115.381 110 114.197 108.688C113.013 107.376 112.101 105.904 111.461 104.272C110.853 102.64 110.549 100.96 110.549 99.232V98.272C110.549 96.48 110.853 94.768 111.461 93.136C112.101 91.472 112.997 90 114.149 88.72C115.333 87.44 116.773 86.432 118.469 85.696C120.165 84.928 122.085 84.544 124.229 84.544C127.077 84.544 129.493 85.184 131.477 86.464C133.461 87.744 134.981 89.44 136.037 91.552C137.093 93.632 137.621 95.904 137.621 98.368V101.152H114.197V96.448H132.581L129.557 98.56C129.557 97.056 129.349 95.792 128.933 94.768C128.549 93.712 127.957 92.912 127.157 92.368C126.389 91.824 125.413 91.552 124.229 91.552C123.077 91.552 122.069 91.824 121.205 92.368C120.373 92.88 119.733 93.68 119.285 94.768C118.837 95.824 118.613 97.168 118.613 98.8C118.613 100.272 118.821 101.552 119.237 102.64C119.653 103.696 120.293 104.512 121.157 105.088C122.021 105.664 123.141 105.952 124.517 105.952C125.733 105.952 126.725 105.744 127.493 105.328C128.293 104.912 128.853 104.352 129.173 103.648H137.141C136.757 105.44 135.989 107.04 134.837 108.448C133.717 109.856 132.277 110.96 130.517 111.76C128.789 112.56 126.789 112.96 124.517 112.96ZM153.89 112.384C151.01 112.384 148.706 112.032 146.978 111.328C145.282 110.624 144.05 109.456 143.282 107.824C142.514 106.192 142.13 103.984 142.13 101.2L142.178 78.592H150.242L150.194 101.44C150.194 102.624 150.498 103.536 151.106 104.176C151.746 104.784 152.658 105.088 153.842 105.088H157.49V112.384H153.89ZM138.29 91.84V85.504H157.49V91.84H138.29ZM161.212 112V76.96H169.948V96.928H168.796C168.796 94.24 169.132 91.984 169.804 90.16C170.476 88.336 171.452 86.96 172.732 86.032C174.044 85.104 175.66 84.64 177.58 84.64H177.964C180.844 84.64 183.036 85.68 184.54 87.76C186.076 89.84 186.844 92.896 186.844 96.928V112H178.108V96.592C178.108 95.376 177.74 94.384 177.004 93.616C176.268 92.816 175.292 92.416 174.076 92.416C172.86 92.416 171.868 92.816 171.1 93.616C170.332 94.384 169.948 95.408 169.948 96.688V112H161.212ZM193 112V85.504H201.736V112H193ZM189.64 91.84V85.504H201.736V91.84H189.64ZM196.6 83.392C195 83.392 193.816 82.992 193.048 82.192C192.312 81.36 191.944 80.304 191.944 79.024C191.944 77.744 192.312 76.704 193.048 75.904C193.816 75.072 194.984 74.656 196.552 74.656C198.152 74.656 199.32 75.072 200.056 75.904C200.792 76.704 201.16 77.744 201.16 79.024C201.16 80.304 200.792 81.36 200.056 82.192C199.32 82.992 198.168 83.392 196.6 83.392ZM207.198 112V85.504H214.11V96.88H213.726C213.726 94.128 214.078 91.856 214.782 90.064C215.486 88.24 216.526 86.88 217.902 85.984C219.31 85.088 221.006 84.64 222.99 84.64H223.374C226.382 84.64 228.702 85.648 230.334 87.664C231.998 89.648 232.83 92.704 232.83 96.832V112H224.094V96.592C224.094 95.376 223.726 94.384 222.99 93.616C222.286 92.816 221.31 92.416 220.062 92.416C218.814 92.416 217.806 92.816 217.038 93.616C216.302 94.384 215.934 95.408 215.934 96.688V112H207.198ZM248.346 122.608C247.034 122.608 245.674 122.56 244.266 122.464C242.89 122.368 241.642 122.24 240.522 122.08V114.784C241.642 114.912 242.89 115.024 244.266 115.12C245.642 115.248 246.906 115.312 248.058 115.312C250.042 115.312 251.658 115.104 252.906 114.688C254.186 114.272 255.13 113.632 255.738 112.768C256.346 111.904 256.65 110.8 256.65 109.456V104.08L257.994 101.2C257.93 103.44 257.498 105.392 256.698 107.056C255.898 108.688 254.746 109.952 253.242 110.848C251.77 111.744 249.978 112.192 247.866 112.192C246.074 112.192 244.458 111.872 243.018 111.232C241.578 110.592 240.346 109.696 239.322 108.544C238.33 107.36 237.562 105.968 237.018 104.368C236.474 102.768 236.202 101.024 236.202 99.136V97.984C236.202 96.096 236.49 94.352 237.066 92.752C237.642 91.12 238.474 89.712 239.562 88.528C240.65 87.312 241.93 86.384 243.402 85.744C244.906 85.072 246.57 84.736 248.394 84.736C250.506 84.736 252.33 85.216 253.866 86.176C255.402 87.104 256.602 88.464 257.466 90.256C258.33 92.048 258.794 94.224 258.858 96.784L257.898 97.12V85.504H264.81V108.88C264.81 112.144 264.202 114.784 262.986 116.8C261.77 118.816 259.93 120.288 257.466 121.216C255.034 122.144 251.994 122.608 248.346 122.608ZM250.794 104.992C251.85 104.992 252.794 104.752 253.626 104.272C254.49 103.792 255.178 103.104 255.69 102.208C256.202 101.28 256.458 100.176 256.458 98.896V97.744C256.458 96.496 256.186 95.44 255.642 94.576C255.13 93.712 254.442 93.056 253.578 92.608C252.714 92.16 251.786 91.936 250.794 91.936C249.642 91.936 248.618 92.208 247.722 92.752C246.858 93.296 246.17 94.064 245.658 95.056C245.178 96.048 244.938 97.216 244.938 98.56C244.938 99.904 245.178 101.056 245.658 102.016C246.17 102.976 246.858 103.712 247.722 104.224C248.618 104.736 249.642 104.992 250.794 104.992ZM289.267 112.864C285.427 112.864 282.403 112.08 280.195 110.512C277.987 108.912 276.803 106.672 276.643 103.792H284.323C284.451 104.592 284.947 105.28 285.811 105.856C286.675 106.432 287.891 106.72 289.459 106.72C290.579 106.72 291.539 106.56 292.339 106.24C293.171 105.888 293.587 105.328 293.587 104.56C293.587 103.888 293.267 103.344 292.627 102.928C291.987 102.48 290.819 102.176 289.123 102.016L287.299 101.824C283.907 101.472 281.411 100.544 279.811 99.04C278.211 97.536 277.411 95.648 277.411 93.376C277.411 91.424 277.891 89.824 278.851 88.576C279.811 87.296 281.139 86.336 282.835 85.696C284.531 85.056 286.467 84.736 288.643 84.736C292.195 84.736 295.059 85.52 297.235 87.088C299.411 88.624 300.563 90.848 300.691 93.76H293.011C292.883 92.96 292.451 92.288 291.715 91.744C290.979 91.168 289.923 90.88 288.547 90.88C287.555 90.88 286.739 91.056 286.099 91.408C285.491 91.76 285.187 92.256 285.187 92.896C285.187 93.568 285.475 94.064 286.051 94.384C286.659 94.704 287.619 94.944 288.931 95.104L290.755 95.296C294.147 95.648 296.755 96.592 298.579 98.128C300.435 99.632 301.363 101.616 301.363 104.08C301.363 105.904 300.867 107.472 299.875 108.784C298.915 110.096 297.523 111.104 295.699 111.808C293.907 112.512 291.763 112.864 289.267 112.864ZM304.749 121.6V85.504H311.661V96.928H310.893C310.989 94.336 311.501 92.128 312.429 90.304C313.389 88.48 314.685 87.104 316.317 86.176C317.949 85.216 319.821 84.736 321.933 84.736C323.757 84.736 325.405 85.072 326.877 85.744C328.349 86.384 329.613 87.312 330.669 88.528C331.725 89.712 332.525 91.12 333.069 92.752C333.645 94.384 333.933 96.176 333.933 98.128V99.28C333.933 101.232 333.677 103.04 333.165 104.704C332.653 106.336 331.885 107.776 330.861 109.024C329.837 110.24 328.573 111.184 327.069 111.856C325.597 112.528 323.901 112.864 321.981 112.864C319.933 112.864 318.125 112.464 316.557 111.664C314.989 110.832 313.741 109.6 312.813 107.968C311.917 106.304 311.437 104.224 311.373 101.728L313.485 104.32V121.6H304.749ZM319.341 105.664C320.493 105.664 321.501 105.376 322.365 104.8C323.261 104.192 323.949 103.36 324.429 102.304C324.941 101.248 325.197 100.048 325.197 98.704C325.197 97.328 324.941 96.144 324.429 95.152C323.949 94.128 323.277 93.344 322.413 92.8C321.549 92.224 320.525 91.936 319.341 91.936C318.285 91.936 317.293 92.176 316.365 92.656C315.469 93.136 314.733 93.84 314.157 94.768C313.581 95.696 313.293 96.816 313.293 98.128V99.76C313.293 101.008 313.597 102.08 314.205 102.976C314.813 103.84 315.581 104.512 316.509 104.992C317.437 105.44 318.381 105.664 319.341 105.664ZM350.205 112.96C347.965 112.96 345.981 112.576 344.253 111.808C342.525 111.04 341.069 110 339.885 108.688C338.701 107.376 337.789 105.904 337.149 104.272C336.541 102.64 336.237 100.96 336.237 99.232V98.272C336.237 96.48 336.541 94.768 337.149 93.136C337.789 91.472 338.685 90 339.837 88.72C341.021 87.44 342.461 86.432 344.157 85.696C345.853 84.928 347.773 84.544 349.917 84.544C352.765 84.544 355.181 85.184 357.165 86.464C359.149 87.744 360.669 89.44 361.725 91.552C362.781 93.632 363.309 95.904 363.309 98.368V101.152H339.885V96.448H358.269L355.245 98.56C355.245 97.056 355.037 95.792 354.621 94.768C354.237 93.712 353.645 92.912 352.845 92.368C352.077 91.824 351.101 91.552 349.917 91.552C348.765 91.552 347.757 91.824 346.893 92.368C346.061 92.88 345.421 93.68 344.973 94.768C344.525 95.824 344.301 97.168 344.301 98.8C344.301 100.272 344.509 101.552 344.925 102.64C345.341 103.696 345.981 104.512 346.845 105.088C347.709 105.664 348.829 105.952 350.205 105.952C351.421 105.952 352.413 105.744 353.181 105.328C353.981 104.912 354.541 104.352 354.861 103.648H362.829C362.445 105.44 361.677 107.04 360.525 108.448C359.405 109.856 357.965 110.96 356.205 111.76C354.477 112.56 352.477 112.96 350.205 112.96ZM379.05 112.96C376.746 112.96 374.746 112.592 373.05 111.856C371.354 111.088 369.93 110.064 368.778 108.784C367.658 107.504 366.81 106.048 366.234 104.416C365.69 102.784 365.418 101.088 365.418 99.328V98.368C365.418 96.512 365.706 94.752 366.282 93.088C366.89 91.424 367.77 89.952 368.922 88.672C370.074 87.392 371.498 86.384 373.194 85.648C374.89 84.912 376.842 84.544 379.05 84.544C381.482 84.544 383.626 85.024 385.482 85.984C387.338 86.944 388.81 88.272 389.898 89.968C391.018 91.632 391.642 93.552 391.77 95.728H383.226C383.13 94.672 382.73 93.776 382.026 93.04C381.354 92.304 380.362 91.936 379.05 91.936C377.93 91.936 377.002 92.224 376.266 92.8C375.562 93.376 375.034 94.176 374.682 95.2C374.33 96.224 374.154 97.44 374.154 98.848C374.154 100.16 374.298 101.328 374.586 102.352C374.906 103.376 375.418 104.176 376.122 104.752C376.858 105.296 377.834 105.568 379.05 105.568C379.946 105.568 380.698 105.408 381.306 105.088C381.914 104.768 382.394 104.32 382.746 103.744C383.098 103.136 383.322 102.432 383.418 101.632H391.962C391.834 103.872 391.194 105.84 390.042 107.536C388.922 109.232 387.418 110.56 385.53 111.52C383.642 112.48 381.482 112.96 379.05 112.96ZM396.679 112V85.504H405.415V112H396.679ZM393.319 91.84V85.504H405.415V91.84H393.319ZM400.279 83.392C398.679 83.392 397.495 82.992 396.727 82.192C395.991 81.36 395.623 80.304 395.623 79.024C395.623 77.744 395.991 76.704 396.727 75.904C397.495 75.072 398.663 74.656 400.231 74.656C401.831 74.656 402.999 75.072 403.735 75.904C404.471 76.704 404.839 77.744 404.839 79.024C404.839 80.304 404.471 81.36 403.735 82.192C402.999 82.992 401.847 83.392 400.279 83.392ZM426.909 112V104.224H425.469V95.92C425.469 94.704 425.181 93.808 424.605 93.232C424.061 92.624 423.149 92.32 421.869 92.32C421.261 92.32 420.365 92.336 419.181 92.368C417.997 92.4 416.749 92.448 415.437 92.512C414.125 92.576 412.925 92.64 411.837 92.704V85.408C412.605 85.344 413.517 85.28 414.573 85.216C415.629 85.152 416.717 85.104 417.837 85.072C418.989 85.04 420.045 85.024 421.005 85.024C423.725 85.024 426.029 85.424 427.917 86.224C429.837 87.024 431.293 88.224 432.285 89.824C433.309 91.424 433.821 93.456 433.821 95.92V112H426.909ZM418.509 112.672C416.653 112.672 415.005 112.336 413.565 111.664C412.125 110.992 410.989 110.032 410.157 108.784C409.357 107.504 408.957 105.984 408.957 104.224C408.957 102.24 409.485 100.64 410.541 99.424C411.597 98.176 413.053 97.264 414.909 96.688C416.765 96.112 418.893 95.824 421.293 95.824H426.429V100.336H421.293C420.109 100.336 419.197 100.64 418.557 101.248C417.917 101.824 417.597 102.608 417.597 103.6C417.597 104.56 417.917 105.344 418.557 105.952C419.197 106.528 420.109 106.816 421.293 106.816C422.061 106.816 422.733 106.688 423.309 106.432C423.917 106.144 424.413 105.664 424.797 104.992C425.181 104.32 425.405 103.392 425.469 102.208L427.485 104.128C427.325 105.952 426.877 107.504 426.141 108.784C425.437 110.032 424.445 110.992 423.165 111.664C421.917 112.336 420.365 112.672 418.509 112.672ZM439.083 112V76.96H447.819V112H439.083ZM436.107 83.296V76.96H447.819V83.296H436.107Z" fill="black"/>
</svg>
